<svg width="16" height="16" viewBox="0 0 16 16" fill="none" xmlns="http://www.w3.org/2000/svg">
<path fill-rule="evenodd" clip-rule="evenodd" d="M8 1H14C14.5521 1.00055 14.9994 1.44794 15 2V15H1V8C1.00055 7.44794 1.44794 7.00055 2 7H7V2C7.00055 1.44794 7.44794 1.00055 8 1ZM9 4H10V5H9V4ZM12 4H13V5H12V4ZM10 7H9V8H10V7ZM12 7H13V8H12V7ZM10 10H9V11H10V10ZM12 10H13V11H12V10ZM4.5 14V10.5H6.5V14H4.5ZM7.5 14H14V2H8V8H2V14H3.5V10C3.5 9.72386 3.72386 9.5 4 9.5H7C7.27614 9.5 7.5 9.72386 7.5 10V14Z" fill="#525252"/>
</svg>
